<svg width="48" height="36" viewBox="0 0 48 36" fill="none" xmlns="http://www.w3.org/2000/svg">
<path d="M18.0009 14.625V5.0625C18.0009 4.31658 17.7046 3.60121 17.1771 3.07376C16.6497 2.54632 15.9343 2.25 15.1884 2.25C14.4425 2.25 13.7271 2.54632 13.1997 3.07376C12.6722 3.60121 12.3759 4.31658 12.3759 5.0625V22.1155L9.29234 16.7747C9.10784 16.4545 8.86204 16.1738 8.56901 15.9486C8.27597 15.7235 7.94144 15.5583 7.58453 15.4625C7.22762 15.3667 6.85534 15.3422 6.48895 15.3904C6.12256 15.4385 5.76925 15.5584 5.44922 15.7432C5.12919 15.928 4.84871 16.174 4.6238 16.4672C4.3989 16.7604 4.23399 17.0951 4.1385 17.4521C4.043 17.8091 4.0188 18.1814 4.06726 18.5477C4.11573 18.9141 4.23591 19.2673 4.42095 19.5872C9.0009 29.25 11.7877 32.625 18.0009 32.625C19.4783 32.625 20.9412 32.334 22.3061 31.7686C23.671 31.2033 24.9112 30.3746 25.9558 29.33C27.0005 28.2853 27.8292 27.0451 28.3945 25.6802C28.9599 24.3153 29.2509 22.8524 29.2509 21.375V15.75C29.2509 15.0041 28.9546 14.2887 28.4271 13.7613C27.8997 13.2338 27.1843 12.9375 26.4384 12.9375C25.6925 12.9375 24.9771 13.2338 24.4497 13.7613C23.9222 14.2887 23.6259 15.0041 23.6259 15.75" stroke="white" stroke-width="1.5" stroke-linecap="round" stroke-linejoin="round"/>
<path d="M23.625 15.75V14.0625C23.625 13.3166 23.3287 12.6012 22.8012 12.0738C22.2738 11.5463 21.5584 11.25 20.8125 11.25C20.0666 11.25 19.3512 11.5463 18.8238 12.0738C18.2963 12.6012 18 13.3166 18 14.0625V14.625" stroke="white" stroke-width="1.5" stroke-linecap="round" stroke-linejoin="round"/>
</svg>
