<svg width="146" height="67" viewBox="0 0 146 67" fill="none" xmlns="http://www.w3.org/2000/svg">
<g clip-path="url(#clip0_42632_1871)">
<path d="M55.5586 10.0808H52.1758L57.265 29.0766H62.995L68.0827 10.0808H64.7014L60.13 28.0995L55.5586 10.0808Z" fill="#08090B"/>
<path d="M73.6878 10.0808H70.4551V29.0766H73.6878V10.0808Z" fill="#08090B"/>
<path d="M80.2264 21.0675H87.4572V18.2595H80.2264V12.8888H89.9635V10.0808H76.9922V29.0766H90.2232V26.2701H80.2264V21.0675Z" fill="#08090B"/>
<path d="M98.6062 29.0766H101.839V12.9721H107.227V10.0808H93.2754V12.9721H98.6062V29.0766Z" fill="#08090B"/>
<path d="M141.082 25.3734C140.497 25.8567 139.655 26.1007 138.578 26.1007C137.5 26.1007 136.658 25.8553 136.073 25.3734C135.503 24.9034 135.088 24.368 134.842 23.782C134.562 23.132 134.408 22.3735 134.389 21.5317V9.6853H131.156V21.3829C131.174 22.8345 131.447 24.1419 131.967 25.2648C132.189 25.7511 132.477 26.2256 132.828 26.6748C133.173 27.1195 133.613 27.5255 134.135 27.8839C134.656 28.2409 135.285 28.5324 136.005 28.7481C136.726 28.9652 137.592 29.0738 138.579 29.0738C139.547 29.0738 140.41 28.9637 141.14 28.7466C141.869 28.5294 142.502 28.2394 143.023 27.8824C143.545 27.524 143.985 27.118 144.33 26.6733C144.68 26.2241 144.968 25.7511 145.19 25.2648C145.709 24.1404 145.983 22.8331 146.001 21.377V9.68679H142.768V21.5257C142.747 22.375 142.595 23.132 142.313 23.7849C142.066 24.3694 141.651 24.9034 141.082 25.3734Z" fill="#08090B"/>
<path d="M117.168 10.0808L111.408 29.0766H114.785L114.845 28.8714C115.726 25.8373 118.588 23.7179 121.807 23.7179H123.683L125.239 29.0766H128.616L122.883 10.0808H117.168ZM116.548 22.9861L120.011 10.9301L123.473 22.9861H116.548Z" fill="#08090B"/>
<path d="M41.3408 3.17795C40.4328 0.488905 26.8027 0.213754 26.8027 0.213754H26.8042C26.6766 0.207805 26.5475 0.201856 26.4184 0.197394C23.3508 0.0724602 20.1812 -0.00636683 17.0385 -0.000417615C15.4672 0.00255699 13.7473 0.0531253 12.1444 0.201856C11.7437 0.239038 11.274 0.311916 10.8748 0.380332C10.6706 0.416027 10.3975 0.477007 10.2309 0.518651C10.0643 0.560295 10.0208 0.570707 9.88573 0.609376C9.75066 0.646559 9.72815 0.653996 9.56456 0.698615C9.40098 0.743234 9.13534 0.823548 8.94474 0.897913C8.75414 0.972278 8.53652 1.05111 8.34592 1.14481C7.96472 1.33221 7.58202 1.53745 7.23233 1.76947C6.53296 2.235 5.92965 2.68565 5.37435 3.31032C4.81906 3.93499 4.46487 4.31722 3.99062 5.11739C1.855 8.7241 0.454758 12.5599 0.0675541 16.7481C-0.00298312 17.5022 1.84642e-05 18.3008 1.84642e-05 19.0683C1.84642e-05 19.455 0.018028 19.8536 0.0495446 20.2492C0.0810612 20.6448 0.100571 21.0271 0.19212 21.4301C0.564316 23.0676 1.01605 24.5564 1.81748 26.1017C2.6189 27.6456 3.70247 29.121 4.88059 30.4893C5.4689 31.1734 6.18478 31.8472 6.85563 32.4808C7.02372 32.6399 7.21132 32.7946 7.38992 32.9493C7.40642 32.9642 7.43044 32.985 7.45745 33.0073C7.48447 33.0296 7.49797 33.0415 7.5415 33.0772C7.58502 33.1129 7.60303 33.1248 7.67657 33.1858C7.75011 33.2467 7.81914 33.2973 7.94071 33.4014C8.06077 33.5055 8.29639 33.6974 8.45398 33.8268C8.61156 33.9562 8.81567 34.1079 8.98225 34.2343C11.0398 35.79 13.3436 37.0706 15.3936 38.6308L15.3981 38.6293C15.3981 38.6293 15.6608 38.8137 16.0945 39.1811C16.4382 39.4652 16.7744 39.7567 17.097 40.0645C17.7049 40.6446 18.2496 41.2469 18.7404 41.8731C21.0186 44.6008 23.7455 49.0627 24.4569 55.3198C24.4884 55.1562 24.5425 54.8855 24.5755 54.6803C24.61 54.475 24.6475 54.2594 24.6685 54.0244C24.7075 53.6005 24.7781 53.1275 24.7811 52.6858C24.7901 50.9204 24.7331 49.1639 24.2363 47.4475C23.2413 44.0089 21.4793 41.0551 18.9085 38.4835C17.6148 37.1896 16.1936 36.2972 14.7393 35.3141C13.2835 34.331 11.8863 33.5189 10.5056 32.4882C10.336 32.3618 10.1829 32.2488 10.0208 32.1179C9.85872 31.987 9.71314 31.874 9.55256 31.7371C9.49403 31.6866 9.37546 31.5795 9.31843 31.5363C9.2629 31.4932 9.21938 31.459 9.18636 31.4322C9.15184 31.4055 9.15635 31.4084 9.13534 31.3906C9.11432 31.3727 9.09031 31.3534 9.0753 31.3415C8.91472 31.2077 8.74813 31.0783 8.59655 30.9429C7.98873 30.3956 7.3689 29.817 6.82562 29.2221C5.73754 28.0338 4.75753 26.7472 3.99963 25.3804C3.24173 24.0136 2.78399 22.6527 2.44481 21.1817C2.35776 20.8069 2.33525 20.4232 2.28272 20.0782C2.23019 19.7331 2.22719 19.3048 2.20018 19.0073C2.14765 18.4079 2.21369 17.2389 2.22119 16.7615C2.26771 13.3585 4.23975 8.40284 5.60097 6.12876C6.96069 3.85467 7.00121 4.36184 8.40745 3.04707C8.75864 2.71986 8.93573 2.81058 9.27491 2.586C9.4445 2.47445 9.61109 2.4685 9.74166 2.41199C9.87222 2.35547 9.89173 2.36737 9.98929 2.33762C10.0868 2.30788 10.1439 2.29449 10.2399 2.27218C10.3345 2.24987 10.4065 2.21864 10.5071 2.18889C10.6076 2.15915 10.6376 2.15022 10.7727 2.11601C10.9063 2.08032 11.1194 2.02678 11.295 1.99554C11.6552 1.92861 12.0409 1.8602 12.4206 1.82004C13.9409 1.65644 15.5902 1.56274 17.1045 1.52407C20.1406 1.44673 23.3869 1.44524 26.3239 1.51068C29.2609 1.57612 31.8783 1.70849 34.6893 2.06247C35.3797 2.14873 35.8899 2.25136 36.5293 2.40306C36.8489 2.47892 37.0636 2.52354 37.3772 2.66334C37.6909 2.80315 37.4057 3.02773 37.1776 3.11846C36.6689 3.31924 36.1331 3.45012 35.6078 3.56316C34.5557 3.78923 33.3281 3.99448 32.3061 4.12536C31.2855 4.25624 30.0128 4.36184 29.1259 4.42431C27.3534 4.54924 24.8411 4.56858 23.3974 4.54032C20.5083 4.48083 17.7169 4.17444 15.3546 3.75502C14.1735 3.54531 13.9109 3.42781 13.2505 3.26124C12.5902 3.09466 12.9639 3.15118 12.4431 2.99947C12.9594 3.17051 12.5842 3.09912 13.24 3.29396C13.8958 3.48879 14.1465 3.61819 15.3261 3.87847C17.6823 4.39902 20.4618 4.83332 23.3733 4.99692C23.8461 5.02369 24.4329 5.04897 25.0692 5.06831C25.0557 5.06831 25.0467 5.06831 25.0467 5.06831C25.0467 5.06831 42.2473 5.86848 41.3408 3.17795Z" fill="#08090B"/>
<path d="M3.98047 18.4841C3.98047 18.4841 12.6896 14.4357 21.5532 20.0874C30.4169 25.7392 43.6734 16.2695 43.6734 16.2695C43.6734 16.2695 43.921 25.2826 34.424 31.6215C24.927 37.9604 25.4838 42.0861 25.4838 42.0861C25.4838 42.0861 24.019 36.128 15.0023 31.7747C5.98553 27.4213 3.98047 18.4841 3.98047 18.4841Z" fill="url(#paint0_radial_42632_1871)"/>
<path d="M27.6801 65.8101C24.8661 65.1095 24.713 57.4187 24.713 57.4187C24.713 57.4187 24.5584 65.1095 21.7459 65.8101C18.9319 66.5106 1.93247 66.5805 1.70735 66.8601C1.56628 67.0371 47.8762 67.0534 47.7216 66.8601C47.4935 66.582 30.494 66.5106 27.6801 65.8101Z" fill="#08090B"/>
<path d="M76.7372 57.3311C77.0794 56.8581 77.5476 56.3941 78.1419 55.939C78.5652 55.6177 79.1325 55.2429 79.8438 54.8146L81.5187 53.8106C82.095 53.4358 82.5273 53.0923 82.8154 52.7799C83.1396 52.423 83.3962 52.1062 83.5853 51.8295C83.7024 51.6421 83.7609 51.5351 83.7609 51.5083C84.4002 50.2143 85.0891 48.6839 85.8275 46.917C86.1337 46.1674 86.4533 45.3821 86.7865 44.5611C87.0657 43.8383 87.3493 43.0976 87.6375 42.3391C87.8896 41.6966 88.1327 41.0451 88.3668 40.3847L89.4339 37.4265L93.8237 35.8871L93.6346 36.2486L93.4455 36.3021C93.3735 36.32 93.3059 36.3467 93.2429 36.3824L92.9863 36.5029C92.518 36.7528 92.1984 37.0963 92.0273 37.5336L87.0296 49.8618C86.7955 50.424 86.3903 50.9996 85.814 51.5886C85.3457 52.0526 84.7739 52.5167 84.0986 52.9807C83.6213 53.3109 83.1171 53.6232 82.5858 53.9177C82.1536 54.1587 81.9375 54.2702 81.9375 54.2524L83.3962 53.9445C84.4678 53.7482 85.2422 53.6589 85.7194 53.6768L87.8401 53.8106C88.5154 53.8552 89.0467 53.8731 89.4339 53.8642C90.3704 53.8463 91.2799 53.6545 92.1623 53.2886C93.7742 52.6193 95.0394 51.6645 95.9578 50.424C96.7593 49.3175 97.1735 48.1708 97.2005 46.9839C97.2185 45.9755 96.9529 45.1501 96.4036 44.5076C95.8183 43.8293 95.0259 43.4947 94.0263 43.5036C92.8017 43.5393 91.4375 44.0703 89.9337 45.0965L91.0007 43.3698L91.4735 43.1958C91.8517 43.0351 92.2299 42.8611 92.6081 42.6737C93.1394 42.406 93.6256 42.1249 94.0669 41.8304C94.6161 41.4645 95.0799 41.0808 95.4581 40.6792C96.5477 39.5459 97.0924 38.3947 97.0924 37.2257C97.0924 35.3428 96.0884 34.4013 94.0804 34.4013C92.2344 34.4192 90.0642 35.1063 87.5699 36.4627C85.2827 37.7121 83.1711 39.2648 81.2351 41.121C79.3081 43.0039 78.331 44.5656 78.304 45.806C78.286 46.4574 78.5472 46.9705 79.0874 47.3453L79.6547 47.6264C79.8258 47.6889 79.9114 47.7157 79.9114 47.7067L79.0064 47.9477C78.304 48.2065 77.6917 48.5634 77.1694 49.0185L76.9938 48.9248C76.8588 48.8356 76.7327 48.733 76.6156 48.617C76.2465 48.2511 76.0754 47.8183 76.1024 47.3186C76.1114 46.6046 76.4581 45.7167 77.1424 44.6548C77.7367 43.7356 78.6057 42.6514 79.7493 41.4021C81.1 40.0278 82.6353 38.7651 84.3552 37.6139C86.2102 36.3556 88.0967 35.3606 90.0147 34.6289C90.492 34.4504 90.9512 34.2898 91.3924 34.147C91.9237 33.9685 92.4325 33.8168 92.9187 33.6919C94.1164 33.3796 95.1564 33.2234 96.0389 33.2234C98.3081 33.2234 99.4427 34.2496 99.4427 36.3021C99.4427 37.1052 99.1275 37.9441 98.4972 38.8186C98.0019 39.5147 97.3131 40.2197 96.4306 40.9336C96.0794 41.2102 95.7102 41.4868 95.323 41.7635C95.0078 41.9776 94.6837 42.1874 94.3505 42.3926C94.2244 42.4729 94.0984 42.5488 93.9723 42.6202L93.4185 42.928V42.9548L93.7292 42.8343L94.5261 42.5532C95.4086 42.2855 96.192 42.1561 96.8763 42.1651C97.9389 42.1829 98.6998 42.4194 99.159 42.8745C99.7714 43.4813 99.9289 44.5076 99.6318 45.9532C99.1725 48.2466 97.5832 50.3973 94.8638 52.4051C93.6031 53.3243 92.2929 54.0337 90.9332 54.5335C89.4924 55.06 88.1417 55.2875 86.8811 55.2161H83.1261C81.5773 55.2161 80.4156 55.3321 79.6412 55.5642C79.0199 55.7516 78.4391 56.0996 77.8988 56.6082L76.7372 57.9067V57.3311Z" fill="#630814"/>
<path d="M100.053 48.5769C100.755 47.0509 101.611 45.9533 102.619 45.284C103.006 45.0252 103.416 44.7709 103.848 44.521C104.371 44.2176 104.875 43.9499 105.361 43.7179C106.604 43.12 107.581 42.821 108.292 42.821C109.031 42.821 109.4 43.1245 109.4 43.7313C109.4 44.7664 108.769 45.8418 107.509 46.9572C107.104 47.341 106.559 47.7604 105.874 48.2155C105.325 48.5903 104.699 48.9829 103.997 49.3934L102.471 50.2501L101.836 50.5848L101.809 50.6651C101.782 50.7454 101.755 50.8391 101.728 50.9462C101.656 51.2853 101.62 51.7136 101.62 52.2312C101.62 52.7131 101.732 53.1459 101.957 53.5296C102.236 54.0026 102.624 54.2435 103.119 54.2524C104.073 54.2524 105.104 53.7036 106.212 52.606C106.581 52.258 106.991 51.7806 107.441 51.1737C107.819 50.674 108.008 50.4107 108.008 50.384C107.936 50.7052 107.855 51.0176 107.765 51.321L107.522 52.0438L107.293 52.6595C105.159 54.6317 103.24 55.6401 101.539 55.6847C100.044 55.7383 99.2244 54.7879 99.0803 52.8336C99.0353 51.495 99.3594 50.0761 100.053 48.5769ZM104.078 48.269C104.78 47.9121 105.37 47.506 105.847 47.0509C106.622 46.3103 107.009 45.5205 107.009 44.6817C107.009 44.2979 106.838 44.1061 106.496 44.1061C105.937 44.1061 105.307 44.4541 104.605 45.1502C103.371 46.3727 102.579 47.6444 102.227 48.9651C102.849 48.8134 103.466 48.5814 104.078 48.269Z" fill="#630814"/>
<path d="M113.153 53.5028C113.225 52.0749 113.184 50.6337 113.031 49.1792C112.824 47.207 112.464 45.8461 111.951 45.0965C111.33 44.2041 110.573 44.3782 109.682 45.6186L109.79 44.8556L110.289 44.3335C110.551 44.0837 110.807 43.865 111.059 43.6776C111.798 43.1422 112.527 42.8745 113.248 42.8745C113.572 42.8745 113.891 43.2493 114.207 43.9989C114.468 44.6503 114.706 45.5204 114.922 46.6091C115.364 48.9382 115.49 50.6828 115.301 51.8429L117.286 49.0319C117.583 48.6125 117.84 48.2243 118.056 47.8674C118.614 47.0018 118.984 46.3012 119.164 45.7658C119.398 45.1144 119.362 44.6994 119.056 44.5209C118.641 44.3603 118.137 44.4897 117.543 44.9091L117.678 44.28C118.407 44.039 119.065 43.7936 119.65 43.5438C120.343 43.2582 120.969 42.9548 121.527 42.6335C121.78 42.8388 121.671 43.4367 121.203 44.4272C120.798 45.275 120.132 46.4039 119.204 47.8138C116.512 51.9099 114.324 54.7699 112.64 56.3941C112.901 55.9033 113.072 54.9395 113.153 53.5028Z" fill="#630814"/>
</g>
<defs>
<radialGradient id="paint0_radial_42632_1871" cx="0" cy="0" r="1" gradientUnits="userSpaceOnUse" gradientTransform="translate(22.6084 21.8117) scale(16.0324 15.8883)">
<stop stop-color="#B51022"/>
<stop offset="0.9157" stop-color="#630814"/>
</radialGradient>
<clipPath id="clip0_42632_1871">
<rect width="146" height="67" fill="white"/>
</clipPath>
</defs>
</svg>
